<?xml version="1.0" encoding="UTF-8"?>
<svg xmlns="http://www.w3.org/2000/svg" xmlns:xlink="http://www.w3.org/1999/xlink"   viewBox="0 0 96 96" version="1.1">
<g id="surface6241922">
<path style=" stroke:none;fill-rule:nonzero;fill:rgb(35.686275%,75.294119%,74.509805%);fill-opacity:1;" d="M 1.199219 1.199219 L 1.199219 94.800781 L 94.800781 94.800781 L 94.800781 1.199219 Z M 56.664062 50.34375 L 45.648438 50.34375 L 45.648438 84.398438 L 36.773438 84.398438 L 36.773438 50.34375 L 25.988281 50.34375 L 25.988281 42.800781 L 56.664062 42.800781 Z M 58.390625 82.457031 L 58.390625 73.351562 C 58.390625 73.351562 63.359375 77.097656 69.332031 77.097656 C 75.300781 77.097656 75.066406 73.199219 75.066406 72.664062 C 75.066406 67 58.160156 67 58.160156 54.457031 C 58.160156 37.398438 82.792969 44.132812 82.792969 44.132812 L 82.488281 52.238281 C 82.488281 52.238281 78.359375 49.480469 73.6875 49.480469 C 69.023438 49.480469 67.339844 51.703125 67.339844 54.074219 C 67.339844 60.195312 84.398438 59.582031 84.398438 71.898438 C 84.398438 90.867188 58.390625 82.457031 58.390625 82.457031 Z M 58.390625 82.457031 "/>
</g>
</svg>
